<?xml version="1.0" encoding="utf-8" ?><svg xmlns="http://www.w3.org/2000/svg" xmlns:xlink="http://www.w3.org/1999/xlink" width="1024" height="1024" viewBox="0 0 1024 1024"><path fill="white" d="M0 0L1024 0L1024 1024L0 1024L0 0Z"/><path fill="#122D22" d="M765.503 374.952C767.9 377.083 776.977 393.245 779.333 397.054C802.833 435.053 825.353 473.908 849.071 511.742C843.545 522.549 833.188 538.784 826.683 549.606L789.873 611.426L720.969 726.593C705.935 752.164 690.72 777.629 675.325 802.984L355.613 803.127L349.782 803.159C323.238 762.286 297.296 716.112 271.748 674.115L765.503 374.952Z"/><path fill="#122D22" d="M349.03 221.949L675.31 221.829C693.623 253.075 713.452 284.049 731.74 315.352C738.108 326.251 745.936 337.768 751.809 348.708C728.046 362.242 705.043 376.844 681.603 390.77L457.549 525.934L321.532 608.198L276.194 635.745C269.762 639.642 263.387 643.804 256.837 647.458C250.897 638.804 243.77 626.238 238.309 617.163C228.552 601.12 218.884 585.023 209.306 568.872C198.33 550.263 185.409 530.788 175.242 511.862L300.026 303.529C315.895 277.038 332.483 247.866 349.03 221.949Z"/><path fill="#3EB297" d="M922.908 263.972L923.513 265.02L739.439 381.878C675.317 421.416 610.916 460.501 546.242 499.131L424.915 572.336C382.073 598.547 339.033 624.432 295.799 649.99C281.912 658.156 268.513 664.946 254.667 672.725L148.425 732.912C133.448 741.363 117.888 749.412 103.037 758.01L102.824 756.747C108.212 753.743 117.283 747.396 122.798 743.798L162.744 717.698C177.83 707.827 192.894 698.003 208.247 688.548C232.483 673.623 256.23 657.509 280.499 642.674C370.851 587.24 461.515 532.317 552.489 477.908C597.013 450.675 641.678 423.673 686.483 396.905C764.42 351.061 843.243 306.742 922.908 263.972Z"/><path fill="#A6CAC8" d="M103.037 758.01C101.941 758.73 93.1409 764.417 92.5852 763.14C92.708 762.859 102.05 757.164 102.824 756.747L103.037 758.01Z"/><path fill="#A6CAC8" d="M922.908 263.972C924.016 263.266 930.714 259.226 931.633 259.873C931.674 260.357 924.311 264.502 923.513 265.02L922.908 263.972Z"/></svg>